<?xml version="1.0" encoding="UTF-8"?>
<svg version="1.1" xmlns="http://www.w3.org/2000/svg" width="5683" height="5682">
<path d="M0 0 C1875.39 0 3750.78 0 5683 0 C5683 1875.06 5683 3750.12 5683 5682 C3807.61 5682 1932.22 5682 0 5682 C0 3806.94 0 1931.88 0 0 Z " fill="#000000" transform="translate(0,0)"/>
<path d="M0 0 C173.91 0 347.82 0 527 0 C533.89006178 13.78012356 533.89006178 13.78012356 536.5234375 20.1484375 C536.97758278 21.23181648 536.97758278 21.23181648 537.44090271 22.33708191 C538.42271457 24.68149474 539.3988251 27.0282352 540.375 29.375 C541.07857846 31.05739508 541.78260847 32.73960139 542.48706055 34.42163086 C543.94381536 37.90096089 545.39865882 41.38108036 546.85205078 44.86181641 C549.8328784 51.99707725 552.83498386 59.12335627 555.83786011 66.24935913 C556.82339085 68.58834756 557.80837247 70.92756654 558.79321289 73.2668457 C565.97074358 90.31409422 573.16779786 107.35309784 580.36508179 124.39201355 C583.15440125 130.99610978 585.94104744 137.60132962 588.7265625 144.20703125 C596.9100026 163.61037919 605.12097997 183.00156059 613.375 202.375 C619.31322807 216.31311034 625.22767068 230.26007844 631.07324219 244.23730469 C637.76504359 260.23602698 644.5247514 276.20612868 651.27442932 292.18049622 C654.13300266 298.9462547 656.98904094 305.71307899 659.84375 312.48046875 C667.43560958 330.47586261 675.04035529 348.4655218 682.6875 366.4375 C688.77209306 380.73738061 694.82222194 395.05135849 700.84716797 409.37646484 C701.51398931 410.96191746 702.1808188 412.54736666 702.84765625 414.1328125 C703.18186584 414.92742889 703.51607544 415.72204529 703.8604126 416.54074097 C708.00193571 426.38519779 712.15725562 436.22382887 716.3125 446.0625 C716.70951111 447.00257904 717.10652222 447.94265808 717.51556396 448.91122437 C719.53581837 453.69493214 721.55620084 458.4785858 723.57666016 463.26220703 C727.15706303 471.73932413 730.73625185 480.21695383 734.31552124 488.69454956 C736.29363005 493.37972115 738.27181912 498.06485884 740.25 502.75 C741.04166705 504.62499984 741.83333372 506.49999984 742.625 508.375 C743.2128125 509.7671875 743.2128125 509.7671875 743.8125 511.1875 C745 514 746.1875 516.8125 747.375 519.625 C747.76686493 520.55309982 748.15872986 521.48119965 748.56246948 522.43742371 C749.35424171 524.3126764 750.1460101 526.18793071 750.93777466 528.06318665 C752.91529478 532.74683373 754.89288128 537.43045276 756.87060547 542.11401367 C760.45283047 550.59746642 764.03455162 559.08113019 767.61383057 567.56582642 C775.55351221 586.38677207 783.50285394 605.20338902 791.5 624 C799.90226073 643.74879852 808.2509282 663.52005338 816.59277344 683.29443359 C820.16471806 691.76129877 823.73972381 700.22687143 827.31451416 708.6925354 C829.29313629 713.37830338 831.27155795 718.06415599 833.25 722.75 C834.04166571 724.62500041 834.83333237 726.50000041 835.625 728.375 C849.875 762.125 864.125 795.875 878.375 829.625 C878.76686493 830.55309982 879.15872986 831.48119965 879.56246948 832.43742371 C880.35424171 834.3126764 881.1460101 836.18793071 881.93777466 838.06318665 C883.91529478 842.74683373 885.89288128 847.43045276 887.87060547 852.11401367 C891.4528154 860.59743073 895.03452271 869.08105831 898.61378479 877.5657196 C906.61515851 896.53289451 914.62746604 915.49516792 922.6875 934.4375 C928.77209306 948.73738061 934.82222194 963.05135849 940.84716797 977.37646484 C941.51398931 978.96191746 942.1808188 980.54736666 942.84765625 982.1328125 C943.18186584 982.92742889 943.51607544 983.72204529 943.8604126 984.54074097 C948.00193571 994.38519779 952.15725562 1004.22382887 956.3125 1014.0625 C956.70951111 1015.00257904 957.10652222 1015.94265808 957.51556396 1016.91122437 C959.53581837 1021.69493214 961.55620084 1026.4785858 963.57666016 1031.26220703 C967.15725482 1039.73977824 970.73661813 1048.21786932 974.31607056 1056.69592285 C975.50059733 1059.50141474 976.68522085 1062.30686576 977.86987305 1065.11230469 C981.45233617 1073.59628759 985.03428182 1082.08048727 988.61378479 1090.5657196 C996.61515883 1109.53289525 1004.62765635 1128.49508648 1012.6875 1147.4375 C1018.06413577 1160.07486491 1023.42556326 1172.7185049 1028.75869751 1185.3742981 C1029.4502766 1187.01543404 1030.14214131 1188.65644965 1030.83432007 1190.29733276 C1036.7746404 1204.3825586 1036.7746404 1204.3825586 1039.06640625 1210.1875 C1041.33666841 1215.91914027 1043.81921324 1221.55748727 1046.28713989 1227.20617676 C1050.79127804 1237.52131753 1055.23906451 1247.85753987 1059.5625 1258.25 C1060.151521 1259.66563232 1060.151521 1259.66563232 1060.75244141 1261.10986328 C1062.90147967 1266.2956873 1065.00561348 1271.49688566 1067.0612793 1276.72045898 C1068.05072177 1279.12317014 1069.1351564 1281.46566147 1070.25 1283.8125 C1071.70089267 1287.00899791 1072.46058627 1289.4304564 1072 1293 C1072.66 1293 1073.32 1293 1074 1293 C1078.39453125 1303.25390625 1078.39453125 1303.25390625 1079.19775391 1305.1315918 C1079.98397671 1306.96268221 1080.77900939 1308.78998186 1081.57421875 1310.6171875 C1082.82110549 1313.5755544 1083.94165962 1316.53300067 1085 1319.5625 C1086.04400443 1322.48096694 1087.08865895 1325.17362377 1088.5 1327.9375 C1090.46777822 1331.9550472 1091.71332318 1336.12253748 1093.03515625 1340.390625 C1093.83562153 1343.1142799 1093.83562153 1343.1142799 1096 1345 C1096.2475 1346.5159375 1096.2475 1346.5159375 1096.5 1348.0625 C1096.7475 1349.5165625 1096.7475 1349.5165625 1097 1351 C1097.66 1351.33 1098.32 1351.66 1099 1352 C1099.9296875 1354.1875 1099.9296875 1354.1875 1100.875 1357 C1102.07776191 1360.4579405 1103.31630165 1363.81276601 1104.875 1367.125 C1106.86890994 1371.46468633 1108.39117467 1375.92506374 1109.9375 1380.4375 C1112.17234291 1386.92127753 1114.79946403 1392.92930598 1118 1399 C1121.34301409 1405.85857084 1124.0876152 1412.85211165 1126.69238281 1420.01269531 C1128.65421134 1425.30887683 1131.07864476 1430.24945411 1133.69140625 1435.2578125 C1135.27620128 1438.57878596 1136.29119273 1441.8857442 1137.1640625 1445.453125 C1138.14070574 1448.42869226 1139.50724322 1451.06391158 1140.93457031 1453.84570312 C1142.67205987 1457.35890382 1144.10704569 1460.98799957 1145.5625 1464.625 C1147.15563656 1468.59547781 1148.72761232 1472.48004356 1150.71484375 1476.2734375 C1152 1479 1152 1479 1152 1483 C1152.66 1483 1153.32 1483 1154 1483 C1154.98611151 1485.53916175 1155.96400876 1488.0810023 1156.9375 1490.625 C1157.35418945 1491.69427734 1157.35418945 1491.69427734 1157.77929688 1492.78515625 C1159.32728612 1496.85095932 1160.45835952 1500.65316375 1161 1505 C1161.66 1505 1162.32 1505 1163 1505 C1163.1959375 1505.51304688 1163.391875 1506.02609375 1163.59375 1506.5546875 C1165.87209412 1512.38803407 1168.36909005 1518.1029941 1170.9375 1523.8125 C1173.80504481 1530.19576046 1176.45938173 1536.59751808 1178.90234375 1543.15625 C1180.21215171 1546.54963148 1181.71236019 1549.82663898 1183.30078125 1553.09765625 C1184 1555 1184 1555 1184 1559 C1184.66 1559 1185.32 1559 1186 1559 C1186.38671875 1560.0621875 1186.7734375 1561.124375 1187.171875 1562.21875 C1190.69212382 1571.87266234 1190.69212382 1571.87266234 1195.0703125 1581.15625 C1196.99726639 1584.97777199 1198.45219791 1589.01379541 1200 1593 C1204.6795417 1604.93283134 1209.51978602 1616.84819502 1215 1628.4375 C1218.69723136 1636.31684552 1221.84307091 1644.42014152 1225.01660156 1652.52099609 C1225.70795869 1654.26380649 1226.4144246 1656.00066199 1227.13183594 1657.73291016 C1227.49825195 1658.62155762 1227.86466797 1659.51020508 1228.2421875 1660.42578125 C1228.74661377 1661.632948 1228.74661377 1661.632948 1229.26123047 1662.86450195 C1230 1665 1230 1665 1230 1668 C1230.66 1668 1231.32 1668 1232 1668 C1232.98397585 1670.5607445 1233.96229967 1673.12341492 1234.9375 1675.6875 C1235.35418945 1676.7693457 1235.35418945 1676.7693457 1235.77929688 1677.87304688 C1237.17766574 1681.56271893 1238.38936004 1685.08108282 1239 1689 C1239.66 1689 1240.32 1689 1241 1689 C1241.48919922 1690.30324219 1241.48919922 1690.30324219 1241.98828125 1691.6328125 C1242.42527344 1692.78523438 1242.86226562 1693.93765625 1243.3125 1695.125 C1243.74175781 1696.26195313 1244.17101563 1697.39890625 1244.61328125 1698.5703125 C1245.92396731 1701.81195294 1247.42137535 1704.88265974 1249 1708 C1249.66666667 1710 1250.33333333 1712 1251 1714 C1251.94360707 1716.19610794 1252.92972442 1718.37051671 1253.91796875 1720.546875 C1255.44126744 1724.00041859 1256.80479049 1727.51196907 1258.16796875 1731.03125 C1258.83986593 1732.96522095 1258.83986593 1732.96522095 1260 1734 C1260.04063832 1735.66617115 1260.042721 1737.33388095 1260 1739 C1260.66 1739 1261.32 1739 1262 1739 C1262.48919922 1740.42892578 1262.48919922 1740.42892578 1262.98828125 1741.88671875 C1263.42939503 1743.15374769 1263.87081771 1744.42066913 1264.3125 1745.6875 C1264.74175781 1746.92886719 1265.17101563 1748.17023438 1265.61328125 1749.44921875 C1266.83418922 1752.57543098 1268.22618109 1755.16986196 1270 1758 C1270.66666667 1760 1271.33333333 1762 1272 1764 C1272.69414705 1765.36149306 1273.40333452 1766.7153911 1274.125 1768.0625 C1275.74338653 1771.1853866 1276.44752547 1773.41979628 1276 1777 C1276.66 1777 1277.32 1777 1278 1777 C1278.65134925 1778.56020867 1279.29582964 1780.12328579 1279.9375 1781.6875 C1280.29714844 1782.55761719 1280.65679688 1783.42773438 1281.02734375 1784.32421875 C1281.9570312 1786.88179265 1282.54162625 1789.3221323 1283 1792 C1279.97817162 1792.87660453 1277.29136426 1793.12477733 1274.14943814 1793.1241985 C1273.16715869 1793.12644579 1272.18487924 1793.12869308 1271.17283374 1793.13100848 C1270.09399124 1793.12838146 1269.01514874 1793.12575445 1267.90361404 1793.12304783 C1266.17708238 1793.1247786 1266.17708238 1793.1247786 1264.41567129 1793.12654433 C1261.20617141 1793.12874288 1257.99671038 1793.12643262 1254.78721358 1793.12226619 C1251.30112188 1793.11883808 1247.81503344 1793.12120163 1244.32894111 1793.12284368 C1238.21438158 1793.12491998 1232.09983176 1793.12326929 1225.98527336 1793.11920547 C1216.89309705 1793.11317944 1207.80092689 1793.11286883 1198.70874895 1793.11374746 C1183.41551349 1793.11506256 1168.12228235 1793.11171544 1152.82904816 1793.10573006 C1137.68233468 1793.09981719 1122.53562301 1793.09596495 1107.38890839 1793.09487724 C1105.97732663 1793.09477413 1105.97732663 1793.09477413 1104.53722807 1793.09466894 C1099.75827341 1793.09433062 1094.97931875 1793.09402923 1090.20036408 1793.09374207 C1056.33295634 1793.09164051 1022.46555095 1793.08489995 988.59814453 1793.07543945 C955.69222018 1793.06625813 922.78629647 1793.05917299 889.88037109 1793.05493164 C888.3594643 1793.05473435 888.3594643 1793.05473435 886.80783213 1793.05453308 C876.62564206 1793.05321458 866.44345199 1793.05193876 856.26126192 1793.05069422 C835.51814837 1793.04815786 814.77503487 1793.04533661 794.03192139 1793.04234314 C792.60125466 1793.0421372 792.60125466 1793.0421372 791.14168557 1793.04192711 C727.4277894 1793.03272326 663.71389454 1793.01687768 600 1793 C599.04471774 1790.6153484 598.08976973 1788.23056384 597.13500977 1785.84570312 C596.86693764 1785.17661926 596.59886551 1784.5075354 596.32266998 1783.81817627 C594.15194595 1778.39483711 592.02002734 1772.95788077 589.9375 1767.5 C589.60024902 1766.61924805 589.26299805 1765.73849609 588.91552734 1764.83105469 C586.38634883 1758.16640925 584.11532792 1751.44952096 582.0078125 1744.640625 C581.28845036 1741.86248671 581.28845036 1741.86248671 579 1741 C578.20399475 1739.36270142 578.20399475 1739.36270142 577.42211914 1737.19775391 C577.12253799 1736.37959198 576.82295685 1735.56143005 576.51429749 1734.71847534 C576.19118088 1733.8136441 575.86806427 1732.90881287 575.53515625 1731.9765625 C575.18968246 1731.02782257 574.84420868 1730.07908264 574.48826599 1729.10159302 C573.7356513 1727.03252031 572.98629026 1724.96226196 572.23974609 1722.89099121 C570.65075004 1718.48269699 569.04644467 1714.08003205 567.44259644 1709.67712402 C566.60015057 1707.36432768 565.75847001 1705.05125243 564.91751099 1702.73791504 C560.18019487 1689.71642199 555.34360343 1676.73224847 550.5 1663.75 C549.67320585 1661.53078132 548.84646303 1659.31154352 548.01977539 1657.09228516 C547.25288398 1655.03543812 546.48588138 1652.97863254 545.71875 1650.921875 C545.37057724 1649.98755646 545.02240448 1649.05323792 544.66368103 1648.09060669 C543.40455598 1644.71933438 542.14399533 1641.35567603 540.79345703 1638.01977539 C539.50556557 1634.74139814 539.3550606 1631.49142919 539 1628 C538.34 1628 537.68 1628 537 1628 C536.34 1624.37 535.68 1620.74 535 1617 C534.34 1617 533.68 1617 533 1617 C532.81002441 1616.48161057 532.62004883 1615.96322113 532.42431641 1615.42912292 C523.46895935 1590.9953812 514.49366442 1566.5695873 505.40112305 1542.18652344 C501.36862763 1531.37146571 497.3499715 1520.55137627 493.34375 1509.7265625 C478.22531752 1468.88079054 462.73383493 1428.21428885 446.80143738 1387.67831421 C442.92841504 1377.82258075 439.06983418 1367.96123435 435.21426392 1358.09866333 C428.20222032 1340.16297442 421.16872128 1322.23577049 414.125 1304.3125 C406.99467618 1286.16875221 399.86716652 1268.02391369 392.75 1249.875 C392.1310083 1248.29658325 392.1310083 1248.29658325 391.49951172 1246.6862793 C385.33443311 1230.96424132 379.17991367 1215.23808938 373.0291748 1199.51043701 C366.70230126 1183.33392322 360.35397096 1167.16588716 354 1151 C346.54677701 1132.03737606 339.10805865 1113.06917854 331.6875 1094.09375 C326.13364471 1079.8924378 320.56878167 1065.69546524 315 1051.5 C308.65921229 1035.33624362 302.32490004 1019.16997988 296 1003 C287.19097405 980.47986536 278.3629281 957.96720884 269.53222656 935.45556641 C265.76945644 925.86316519 262.00780175 916.27032656 258.24606323 906.67752075 C257.00271322 903.50691883 255.75930114 900.33634125 254.51586914 897.16577148 C250.26106927 886.31656175 246.00695791 875.46708268 241.75390625 864.6171875 C230.70385493 836.42793771 230.70385493 836.42793771 219.625 808.25 C219.37332062 807.61052429 219.12164124 806.97104858 218.86233521 806.31219482 C218.15087679 804.50482145 217.43872947 802.6977193 216.7265625 800.890625 C216.28602539 799.77107422 215.84548828 798.65152344 215.39160156 797.49804688 C214.38060876 794.95673024 213.35728196 792.42282082 212.31933594 789.89257812 C212.04060638 789.20887146 211.76187683 788.52516479 211.47470093 787.82073975 C210.93647795 786.50240654 210.39405979 785.18577582 209.84683228 783.87115479 C208.70510803 781.06722205 208 779.06186086 208 776 C204.24117332 778.50588445 203.55035081 781.16833518 202.125 785.25 C201.73646851 786.32266113 201.73646851 786.32266113 201.34008789 787.41699219 C200.54923502 789.60764254 199.77250822 791.80282082 199 794 C195.63653221 803.52486454 192.05853132 812.8612612 188.08056641 822.14599609 C184.12550588 831.39252146 180.31635981 840.6126182 177.01953125 850.1171875 C175.82579648 853.49257547 174.44142518 856.72403368 173 860 C171.97220599 862.65710801 170.984954 865.32655343 170 868 C169.34 868 168.68 868 168 868 C168.0530127 869.17130966 168.10602539 870.34261932 168.16064453 871.54942322 C168.15314604 875.88682225 167.09717377 879.17962196 165.4296875 883.20922852 C165.15722198 883.87924078 164.88475647 884.54925304 164.60403442 885.23956871 C163.70704841 887.43729973 162.79101302 889.62654595 161.875 891.81640625 C161.23551843 893.37460986 160.59752429 894.93342464 159.9609375 896.49281311 C158.63845412 899.72875845 157.30943963 902.96190194 155.97558594 906.19317627 C153.22042853 912.88000835 150.54009993 919.59653897 147.8592186 926.31340599 C146.70733968 929.19764967 145.55184441 932.08043829 144.39626884 934.96320248 C130.30516175 970.10654079 130.30516175 970.10654079 116.51049805 1005.36694336 C113.00626532 1014.436646 109.43487487 1023.47684175 105.8125 1032.5 C99.10979397 1049.19719707 92.46296707 1065.91638012 85.82493591 1082.63936615 C84.93451753 1084.88251345 84.04399254 1087.1256184 83.15344238 1089.36871338 C77.28543047 1104.14930197 71.42031535 1118.93102241 65.5703125 1133.71875 C63.9011437 1137.93754038 62.23187332 1142.15629054 60.5625 1146.375 C59.9481308 1147.92778152 59.9481308 1147.92778152 59.3213501 1149.51193237 C53.94595538 1163.09366508 48.54052753 1176.66314308 43.109375 1190.22265625 C42.81145994 1190.96646042 42.51354488 1191.71026459 42.2066021 1192.47660828 C40.6862305 1196.27233421 39.16564978 1200.06797633 37.64498901 1203.86358643 C37.34235516 1204.6189695 37.0397213 1205.37435257 36.72791672 1206.15262604 C36.11887534 1207.6727892 35.5098183 1209.19294609 34.90074539 1210.71309662 C26.52058818 1231.62989525 18.18941506 1252.56372237 10.03051758 1273.56811523 C5.69816203 1284.7150523 1.28157656 1295.82691176 -3.16688538 1306.92796326 C-7.05219301 1316.624362 -10.92033442 1326.32746694 -14.77734375 1336.03515625 C-15.20882029 1337.1210372 -15.20882029 1337.1210372 -15.64901352 1338.22885513 C-19.02584227 1346.72774331 -22.4001806 1355.22762025 -25.77441406 1363.72753906 C-26.25322305 1364.93367953 -26.25322305 1364.93367953 -26.74170494 1366.16418648 C-28.66923921 1371.0197613 -28.66923921 1371.0197613 -30.59659195 1375.87540817 C-34.24431492 1385.0656923 -37.89620137 1394.25428252 -41.55773926 1403.43907166 C-51.87134239 1429.31091562 -61.98421234 1455.24302195 -71.74977112 1481.32684326 C-75.6621019 1491.7766085 -79.60593082 1502.21444354 -83.54849243 1512.65283203 C-85.65721502 1518.23685612 -87.7641074 1523.8215706 -89.87109375 1529.40625 C-90.72249313 1531.66276055 -91.57389288 1533.91927097 -92.42529297 1536.17578125 C-94.58955203 1541.91201948 -96.75363209 1547.64832522 -98.91767883 1553.38464355 C-101.07000048 1559.08980717 -103.2224646 1564.79491703 -105.375 1570.5 C-105.79889008 1571.62349854 -106.22278015 1572.74699707 -106.65951538 1573.90454102 C-111.9016014 1587.79776936 -117.15108029 1601.68815698 -122.41082764 1615.57470703 C-129.54342521 1634.40958739 -136.63609474 1653.25954906 -143.73532104 1672.10702515 C-150.040682 1688.84674883 -156.34855031 1705.58545818 -162.6875 1722.3125 C-167.31814803 1734.53179788 -171.91631944 1746.76300825 -176.5 1759 C-185.12840368 1782.03306955 -193.82844774 1805.03858823 -202.57421875 1828.02734375 C-204.19540549 1832.28902713 -205.81651022 1836.5507417 -207.4375 1840.8125 C-207.84531708 1841.88465759 -208.25313416 1842.95681519 -208.67330933 1844.0614624 C-213.62138546 1857.07295678 -218.54858653 1870.0917691 -223.42544556 1883.13012695 C-224.3312816 1885.55017731 -225.23895951 1887.96952925 -226.1472168 1890.38867188 C-226.77653643 1892.06510173 -227.40584948 1893.74153406 -228.03515625 1895.41796875 C-228.35350937 1896.2659201 -228.67186249 1897.11387146 -228.99986267 1897.98751831 C-230.70612554 1902.53626114 -232.40506298 1907.08758632 -234.09326172 1911.64306641 C-248.9684144 1951.766082 -264.918418 1991.44261848 -280.95161915 2031.11451054 C-282.81806272 2035.73313199 -284.68284548 2040.35242347 -286.54775047 2044.97166634 C-287.84266622 2048.17594867 -289.14095047 2051.37885063 -290.43952942 2054.58164978 C-294.14610702 2063.74501829 -297.79652871 2072.89364267 -301.0045166 2082.24580383 C-301.96935933 2084.91522669 -303.07001572 2087.45973508 -304.27734375 2090.02734375 C-308.01716382 2098.01966603 -311.12962611 2106.27486783 -314.35366821 2114.48477173 C-316.45344258 2119.83087115 -318.56317126 2125.1730428 -320.671875 2130.515625 C-321.10901321 2131.62376053 -321.54615143 2132.73189606 -321.99653625 2133.87361145 C-326.73118594 2145.86818374 -331.51820213 2157.84167019 -336.3125 2169.8125 C-336.73308685 2170.86294495 -337.15367371 2171.91338989 -337.58700562 2172.9956665 C-339.63800619 2178.11810526 -341.68958309 2183.24031274 -343.74169922 2188.36230469 C-346.67234946 2195.67753271 -349.59878585 2202.99444441 -352.52481079 2210.31152344 C-353.91735567 2213.7937104 -355.31025565 2217.27575531 -356.703125 2220.7578125 C-357.24804863 2222.12011649 -357.7929705 2223.48242117 -358.33789062 2224.84472656 C-368.53255208 2250.33138021 -378.72721354 2275.81803385 -388.921875 2301.3046875 C-389.40809326 2302.52027344 -389.89431152 2303.73585938 -390.39526367 2304.98828125 C-391.37968913 2307.44926368 -392.36422642 2309.91020137 -393.34887695 2312.37109375 C-395.79929364 2318.49555565 -398.2482421 2324.62059701 -400.69366455 2330.74705505 C-401.93113982 2333.84699371 -403.16931021 2336.94665453 -404.40753174 2340.04629517 C-404.997175 2341.52286895 -405.5865054 2342.99956772 -406.17547607 2344.47640991 C-406.45320862 2345.17279572 -406.73094116 2345.86918152 -407.01708984 2346.58666992 C-407.25736908 2347.1894426 -407.49764832 2347.79221527 -407.74520874 2348.41325378 C-411.43672591 2357.63647788 -415.21657267 2366.81167649 -419 2376 C-645.71 2376 -872.42 2376 -1106 2376 C-1105.19546617 2371.97733085 -1104.30152312 2369.0239975 -1102.7265625 2365.3125 C-1102.24171387 2364.16313965 -1101.75686523 2363.0137793 -1101.25732422 2361.82958984 C-1100.71326718 2360.55303815 -1100.16915711 2359.27650904 -1099.625 2358 C-1099.04788956 2356.63642095 -1098.47124385 2355.27264515 -1097.89501953 2353.90869141 C-1096.62449192 2350.90326468 -1095.35123246 2347.89901414 -1094.07617188 2344.89550781 C-1091.90299631 2339.77450056 -1089.73988748 2334.64927115 -1087.578125 2329.5234375 C-1084.37743477 2321.93516762 -1081.17432838 2314.34792502 -1077.96875 2306.76171875 C-1074.6955925 2299.01530222 -1071.42477072 2291.26790533 -1068.15625 2283.51953125 C-1060.56439042 2265.52413739 -1052.95964471 2247.5344782 -1045.3125 2229.5625 C-1039.89180427 2216.82289671 -1034.49317006 2204.07432866 -1029.125 2191.3125 C-1028.8010022 2190.54227509 -1028.47700439 2189.77205017 -1028.14318848 2188.97848511 C-1027.4831581 2187.40937056 -1026.82313415 2185.84025331 -1026.16311646 2184.27113342 C-1025.83213959 2183.48427658 -1025.50116272 2182.69741974 -1025.16015625 2181.88671875 C-1024.82635956 2181.09313461 -1024.49256287 2180.29955048 -1024.14865112 2179.48191833 C-1019.96052622 2169.52655068 -1015.76274786 2159.57525806 -1011.5625 2149.625 C-1011.16326324 2148.67919067 -1010.76402649 2147.73338135 -1010.35269165 2146.75891113 C-1004.34186607 2132.52157131 -998.30486545 2118.29551607 -992.25411987 2104.07510376 C-987.18683519 2092.16438332 -982.14378724 2080.24373581 -977.125 2068.3125 C-976.8010022 2067.54227509 -976.47700439 2066.77205017 -976.14318848 2065.97848511 C-975.4831581 2064.40937056 -974.82313415 2062.84025331 -974.16311646 2061.27113342 C-973.83213959 2060.48427658 -973.50116272 2059.69741974 -973.16015625 2058.88671875 C-972.82635956 2058.09313461 -972.49256287 2057.29955048 -972.14865112 2056.48191833 C-967.96052622 2046.52655068 -963.76274786 2036.57525806 -959.5625 2026.625 C-958.96364487 2025.20628601 -958.96364487 2025.20628601 -958.35269165 2023.75891113 C-952.34186607 2009.52157131 -946.30486545 1995.29551607 -940.25411987 1981.07510376 C-934.52302125 1967.60407979 -928.82843177 1954.11802447 -923.15283203 1940.62353516 C-922.48601069 1939.03808254 -921.8191812 1937.45263334 -921.15234375 1935.8671875 C-920.81813416 1935.07257111 -920.48392456 1934.27795471 -920.1395874 1933.45925903 C-915.99806429 1923.61480221 -911.84274438 1913.77617113 -907.6875 1903.9375 C-907.29048889 1902.99742096 -906.89347778 1902.05734192 -906.48443604 1901.08877563 C-904.46418163 1896.30506786 -902.44379916 1891.5214142 -900.42333984 1886.73779297 C-896.84274518 1878.26022176 -893.26338187 1869.78213068 -889.68392944 1861.30407715 C-888.49940267 1858.49858526 -887.31477915 1855.69313424 -886.13012695 1852.88769531 C-882.54766383 1844.40371241 -878.96571818 1835.91951273 -875.38621521 1827.4342804 C-867.38484149 1808.46710549 -859.37253396 1789.50483208 -851.3125 1770.5625 C-845.22790694 1756.26261939 -839.17777806 1741.94864151 -833.15283203 1727.62353516 C-832.48601069 1726.03808254 -831.8191812 1724.45263334 -831.15234375 1722.8671875 C-830.81813416 1722.07257111 -830.48392456 1721.27795471 -830.1395874 1720.45925903 C-825.99806429 1710.61480221 -821.84274438 1700.77617113 -817.6875 1690.9375 C-817.29048889 1689.99742096 -816.89347778 1689.05734192 -816.48443604 1688.08877563 C-814.46418163 1683.30506786 -812.44379916 1678.5214142 -810.42333984 1673.73779297 C-806.84274518 1665.26022176 -803.26338187 1656.78213068 -799.68392944 1648.30407715 C-798.49940267 1645.49858526 -797.31477915 1642.69313424 -796.13012695 1639.88769531 C-792.54766383 1631.40371241 -788.96571818 1622.91951273 -785.38621521 1614.4342804 C-777.38484149 1595.46710549 -769.37253396 1576.50483208 -761.3125 1557.5625 C-755.22790694 1543.26261939 -749.17777806 1528.94864151 -743.15283203 1514.62353516 C-742.48601069 1513.03808254 -741.8191812 1511.45263334 -741.15234375 1509.8671875 C-740.81813416 1509.07257111 -740.48392456 1508.27795471 -740.1395874 1507.45925903 C-735.99806429 1497.61480221 -731.84274438 1487.77617113 -727.6875 1477.9375 C-727.29048889 1476.99742096 -726.89347778 1476.05734192 -726.48443604 1475.08877563 C-724.46418163 1470.30506786 -722.44379916 1465.5214142 -720.42333984 1460.73779297 C-716.84274518 1452.26022176 -713.26338187 1443.78213068 -709.68392944 1435.30407715 C-708.49940267 1432.49858526 -707.31477915 1429.69313424 -706.13012695 1426.88769531 C-702.54766383 1418.40371241 -698.96571818 1409.91951273 -695.38621521 1401.4342804 C-687.38484149 1382.46710549 -679.37253396 1363.50483208 -671.3125 1344.5625 C-665.22790694 1330.26261939 -659.17777806 1315.94864151 -653.15283203 1301.62353516 C-652.48601069 1300.03808254 -651.8191812 1298.45263334 -651.15234375 1296.8671875 C-650.81813416 1296.07257111 -650.48392456 1295.27795471 -650.1395874 1294.45925903 C-645.99806429 1284.61480221 -641.84274438 1274.77617113 -637.6875 1264.9375 C-637.29048889 1263.99742096 -636.89347778 1263.05734192 -636.48443604 1262.08877563 C-634.46418163 1257.30506786 -632.44379916 1252.5214142 -630.42333984 1247.73779297 C-626.84274518 1239.26022176 -623.26338187 1230.78213068 -619.68392944 1222.30407715 C-618.49940267 1219.49858526 -617.31477915 1216.69313424 -616.13012695 1213.88769531 C-612.54766383 1205.40371241 -608.96571818 1196.91951273 -605.38621521 1188.4342804 C-597.38484149 1169.46710549 -589.37253396 1150.50483208 -581.3125 1131.5625 C-575.22790694 1117.26261939 -569.17777806 1102.94864151 -563.15283203 1088.62353516 C-562.48601069 1087.03808254 -561.8191812 1085.45263334 -561.15234375 1083.8671875 C-560.81813416 1083.07257111 -560.48392456 1082.27795471 -560.1395874 1081.45925903 C-555.99806429 1071.61480221 -551.84274438 1061.77617113 -547.6875 1051.9375 C-547.29048889 1050.99742096 -546.89347778 1050.05734192 -546.48443604 1049.08877563 C-544.46418163 1044.30506786 -542.44379916 1039.5214142 -540.42333984 1034.73779297 C-536.84274518 1026.26022176 -533.26338187 1017.78213068 -529.68392944 1009.30407715 C-528.49940267 1006.49858526 -527.31477915 1003.69313424 -526.13012695 1000.88769531 C-522.54764876 992.40367672 -518.96568927 983.91944084 -515.38616943 975.43417358 C-507.10079602 955.79376862 -498.80078255 936.15986784 -490.45544434 916.54486084 C-482.40208555 897.61415892 -474.40338138 878.66048598 -466.40722656 859.70556641 C-462.83473991 851.2374164 -459.2591776 842.77056509 -455.68383789 834.30361938 C-454.50201893 831.50478132 -453.32032395 828.70589095 -452.13867188 825.90698242 C-448.52132289 817.33887152 -444.90352466 808.77095137 -441.2837677 800.20385742 C-440.04438905 797.2704197 -438.8052619 794.33687584 -437.56616211 791.40332031 C-435.95860701 787.59755554 -434.3499241 783.79227033 -432.74047852 779.98730469 C-429.12831198 771.44308987 -425.53226562 762.89305709 -421.98828125 754.3203125 C-421.37687912 752.84550357 -420.76539115 751.37073022 -420.15380859 749.89599609 C-419.03861671 747.20659924 -417.93205878 744.51387957 -416.83056641 741.81884766 C-416.34894043 740.65659668 -415.86731445 739.4943457 -415.37109375 738.296875 C-414.95786865 737.28979492 -414.54464355 736.28271484 -414.11889648 735.24511719 C-413 733 -413 733 -411 732 C-410.31527335 730.11235097 -410.31527335 730.11235097 -409.875 727.9375 C-409.62363281 726.83728516 -409.62363281 726.83728516 -409.3671875 725.71484375 C-409.24601562 725.14894531 -409.12484375 724.58304688 -409 724 C-408.34 724 -407.68 724 -407 724 C-406.83419434 723.46922852 -406.66838867 722.93845703 -406.49755859 722.39160156 C-404.55176135 716.34296685 -402.17925911 710.56399046 -399.625 704.75 C-396.62014751 697.8359337 -393.76924619 690.91066084 -391.11328125 683.85546875 C-388.71411929 677.70182878 -385.91518555 671.73573793 -382.875 665.875 C-381.07943394 662.36319008 -379.90008561 658.77777117 -378.71484375 655.0234375 C-377.80697298 652.45361752 -376.42573378 650.3168174 -375 648 C-374.27877548 646.0985899 -373.56078321 644.19572814 -372.875 642.28125 C-371.90435739 639.75064604 -370.77901735 637.32728686 -369.625 634.875 C-367.69518767 630.71097042 -366.10384739 626.53161422 -364.625 622.1875 C-362.4604238 615.94036868 -359.74997348 610.26635298 -356.6484375 604.44921875 C-355.06647701 601.13909762 -353.94454696 597.91219512 -352.83056641 594.42944336 C-351.31364136 589.99237071 -349.3831164 585.72889233 -347.5 581.4375 C-344.30042785 574.14210493 -344.30042785 574.14210493 -341.40625 566.72265625 C-340.12469171 563.33008666 -338.62289763 560.2378007 -337 557 C-335.49203038 553.4784561 -334.05970939 549.92691251 -332.625 546.375 C-331.81798454 544.38921065 -331.01069551 542.40353245 -330.203125 540.41796875 C-329.81962891 539.47356934 -329.43613281 538.52916992 -329.04101562 537.55615234 C-327.4689998 533.69616038 -325.86332991 529.85067472 -324.25 526.0078125 C-323.23685934 523.56994279 -322.23955883 521.12715404 -321.25 518.6796875 C-320.9401416 517.91696533 -320.6302832 517.15424316 -320.31103516 516.3684082 C-319.70315973 514.87091644 -319.09847956 513.37212218 -318.49755859 511.87182617 C-316.92912953 508.01749517 -315.15865019 504.56646552 -313 501 C-312.16619754 498.99618441 -311.37682804 496.97349069 -310.625 494.9375 C-308.25692399 488.55013852 -305.63714121 482.280671 -303 476 C-302.31429932 474.35656616 -302.31429932 474.35656616 -301.61474609 472.67993164 C-300.20634486 469.30540229 -298.79120235 465.9337619 -297.375 462.5625 C-296.65957031 460.84643555 -296.65957031 460.84643555 -295.9296875 459.09570312 C-295.465625 457.99291016 -295.0015625 456.89011719 -294.5234375 455.75390625 C-294.11013184 454.76720947 -293.69682617 453.7805127 -293.27099609 452.76391602 C-292.01853892 450.04031486 -290.56565485 447.55298494 -289 445 C-288.20457599 442.98325224 -288.20457599 442.98325224 -287.625 440.9375 C-284.83783031 432.1840452 -280.95855126 423.85976706 -277.12109375 415.52734375 C-276.13706901 413.30900226 -275.26034686 411.0942321 -274.4375 408.8125 C-273.4942616 406.19883382 -272.41244172 403.77453995 -271.125 401.3125 C-268.78499642 396.7664625 -267.02981345 392.02916816 -265.2265625 387.25 C-264.1369696 384.36292581 -263.01951413 381.4906537 -261.875 378.625 C-261.58367188 377.89539062 -261.29234375 377.16578125 -260.9921875 376.4140625 C-259.95967604 373.90188895 -258.88570532 371.40884089 -257.81201172 368.9140625 C-256.97177471 366.93346776 -256.15816818 364.94373462 -255.3515625 362.94921875 C-252.48453882 355.86477362 -249.5679932 348.90791546 -246.046875 342.1171875 C-244.75715186 339.50886683 -243.77944527 336.84745861 -242.8046875 334.109375 C-241.85489886 331.61963779 -240.7491864 329.22845337 -239.625 326.8125 C-237.83043402 322.91983611 -236.20088708 319.01022099 -234.6875 315 C-231.77025079 307.30418919 -228.56513554 299.74284388 -225.34570312 292.16992188 C-224.04767906 289.11231221 -222.75393288 286.05293157 -221.46144104 282.99298096 C-220.22369068 280.06312011 -218.98450298 277.13386835 -217.74508667 274.20471191 C-217.13100876 272.75298102 -216.51733056 271.30108098 -215.90408325 269.84899902 C-212.70468709 262.27586534 -209.47797179 254.72776313 -206.01293945 247.27099609 C-205.03610072 245.08093731 -204.1877791 242.88037742 -203.375 240.625 C-202 237 -202 237 -200.5 234.5625 C-199.15686621 232.26797978 -198.41636122 230.38690499 -197.625 227.875 C-196.48888771 224.2753179 -195.09948202 220.91925197 -193.5 217.5 C-191.94860581 214.18020112 -190.58613277 210.93657546 -189.5 207.4375 C-188.47627168 204.18802527 -187.19336899 201.27471163 -185.625 198.25 C-183.11271032 193.39090079 -181.17122869 188.40867 -179.24609375 183.29296875 C-176.46748768 175.95013202 -173.45760882 168.80079868 -169.875 161.8125 C-168.17030447 158.47215989 -166.65716424 155.27370064 -165.5625 151.6875 C-164.29060447 147.52561699 -162.49907101 143.66747984 -160.625 139.75 C-157.82860405 133.89972253 -155.38582539 127.99535877 -153.11328125 121.91796875 C-151.86879208 118.65609713 -150.47889864 115.48798735 -149.03125 112.3125 C-147.79639605 109.54343356 -146.65015648 106.74275971 -145.5 103.9375 C-144.08572879 100.51643418 -142.63273222 97.16574491 -140.9375 93.875 C-138.13885248 88.43633276 -135.89763907 82.74901966 -134 76.9375 C-132.93590927 73.81173348 -131.62818332 70.8836524 -130.265625 67.87890625 C-128.62862879 64.15524512 -127.09856474 60.3911818 -125.5625 56.625 C-122.38773195 48.86370353 -119.1209574 41.16336083 -115.3125 33.6875 C-113.94760464 31.05071062 -113.94760464 31.05071062 -113.125 28.3125 C-111.78428338 24.3648344 -110.05352044 20.6740367 -108.30078125 16.89453125 C-106.69098688 13.3123762 -105.2764003 9.67127738 -103.89453125 5.99609375 C-103 4 -103 4 -101 2 C-99.17654991 1.75390434 -99.17654991 1.75390434 -96.92514038 1.75949097 C-95.64627205 1.75536697 -95.64627205 1.75536697 -94.34156799 1.75115967 C-93.40433395 1.75835022 -92.46709991 1.76554077 -91.50146484 1.77294922 C-90.51606216 1.77265717 -89.53065948 1.77236511 -88.51539612 1.77206421 C-85.24715472 1.77346136 -81.97913924 1.78904073 -78.7109375 1.8046875 C-76.44935226 1.80841626 -74.18776541 1.81126388 -71.92617798 1.81326294 C-65.96504276 1.82091019 -60.00400453 1.84056806 -54.04290771 1.8626709 C-47.96351433 1.88310583 -41.88410531 1.89225962 -35.8046875 1.90234375 C-23.86974898 1.92381291 -11.93488255 1.957962 0 2 C0 1.34 0 0.68 0 0 Z " fill="#A88154" transform="translate(2629,1633)"/>
<path d="M0 0 C173.91 0 347.82 0 527 0 C533.89006178 13.78012356 533.89006178 13.78012356 536.5234375 20.1484375 C536.82620102 20.87069016 537.12896454 21.59294281 537.44090271 22.33708191 C538.42271457 24.68149474 539.3988251 27.0282352 540.375 29.375 C541.07857846 31.05739508 541.78260847 32.73960139 542.48706055 34.42163086 C543.94381536 37.90096089 545.39865882 41.38108036 546.85205078 44.86181641 C549.8328784 51.99707725 552.83498386 59.12335627 555.83786011 66.24935913 C556.82339085 68.58834756 557.80837247 70.92756654 558.79321289 73.2668457 C565.97074358 90.31409422 573.16779786 107.35309784 580.36508179 124.39201355 C583.15440125 130.99610978 585.94104744 137.60132962 588.7265625 144.20703125 C596.9100026 163.61037919 605.12097997 183.00156059 613.375 202.375 C619.31322807 216.31311034 625.22767068 230.26007844 631.07324219 244.23730469 C637.76504359 260.23602698 644.5247514 276.20612868 651.27442932 292.18049622 C654.13300266 298.9462547 656.98904094 305.71307899 659.84375 312.48046875 C667.43560958 330.47586261 675.04035529 348.4655218 682.6875 366.4375 C688.77209306 380.73738061 694.82222194 395.05135849 700.84716797 409.37646484 C701.51398931 410.96191746 702.1808188 412.54736666 702.84765625 414.1328125 C703.18186584 414.92742889 703.51607544 415.72204529 703.8604126 416.54074097 C708.00193571 426.38519779 712.15725562 436.22382887 716.3125 446.0625 C716.70951111 447.00257904 717.10652222 447.94265808 717.51556396 448.91122437 C719.53581837 453.69493214 721.55620084 458.4785858 723.57666016 463.26220703 C727.15706303 471.73932413 730.73625185 480.21695383 734.31552124 488.69454956 C736.29363005 493.37972115 738.27181912 498.06485884 740.25 502.75 C741.04166705 504.62499984 741.83333372 506.49999984 742.625 508.375 C743.2128125 509.7671875 743.2128125 509.7671875 743.8125 511.1875 C745 514 746.1875 516.8125 747.375 519.625 C747.76686493 520.55309982 748.15872986 521.48119965 748.56246948 522.43742371 C749.35424171 524.3126764 750.1460101 526.18793071 750.93777466 528.06318665 C752.91529478 532.74683373 754.89288128 537.43045276 756.87060547 542.11401367 C760.45283047 550.59746642 764.03455162 559.08113019 767.61383057 567.56582642 C775.55351221 586.38677207 783.50285394 605.20338902 791.5 624 C799.90226073 643.74879852 808.2509282 663.52005338 816.59277344 683.29443359 C820.16471806 691.76129877 823.73972381 700.22687143 827.31451416 708.6925354 C829.29313629 713.37830338 831.27155795 718.06415599 833.25 722.75 C834.04166571 724.62500041 834.83333237 726.50000041 835.625 728.375 C849.875 762.125 864.125 795.875 878.375 829.625 C878.76686493 830.55309982 879.15872986 831.48119965 879.56246948 832.43742371 C880.35424171 834.3126764 881.1460101 836.18793071 881.93777466 838.06318665 C883.91529478 842.74683373 885.89288128 847.43045276 887.87060547 852.11401367 C891.4528154 860.59743073 895.03452271 869.08105831 898.61378479 877.5657196 C906.61515851 896.53289451 914.62746604 915.49516792 922.6875 934.4375 C928.77209306 948.73738061 934.82222194 963.05135849 940.84716797 977.37646484 C941.51398931 978.96191746 942.1808188 980.54736666 942.84765625 982.1328125 C943.18186584 982.92742889 943.51607544 983.72204529 943.8604126 984.54074097 C948.00193571 994.38519779 952.15725562 1004.22382887 956.3125 1014.0625 C956.70951111 1015.00257904 957.10652222 1015.94265808 957.51556396 1016.91122437 C959.53581837 1021.69493214 961.55620084 1026.4785858 963.57666016 1031.26220703 C967.15725482 1039.73977824 970.73661813 1048.21786932 974.31607056 1056.69592285 C975.50059733 1059.50141474 976.68522085 1062.30686576 977.86987305 1065.11230469 C981.45233617 1073.59628759 985.03428182 1082.08048727 988.61378479 1090.5657196 C996.61515883 1109.53289525 1004.62765635 1128.49508648 1012.6875 1147.4375 C1018.06413577 1160.07486491 1023.42556326 1172.7185049 1028.75869751 1185.3742981 C1029.4502766 1187.01543404 1030.14214131 1188.65644965 1030.83432007 1190.29733276 C1036.7746404 1204.3825586 1036.7746404 1204.3825586 1039.06640625 1210.1875 C1041.33666841 1215.91914027 1043.81921324 1221.55748727 1046.28713989 1227.20617676 C1050.79127804 1237.52131753 1055.23906451 1247.85753987 1059.5625 1258.25 C1060.151521 1259.66563232 1060.151521 1259.66563232 1060.75244141 1261.10986328 C1062.90147967 1266.2956873 1065.00561348 1271.49688566 1067.0612793 1276.72045898 C1068.05072177 1279.12317014 1069.1351564 1281.46566147 1070.25 1283.8125 C1071.70089267 1287.00899791 1072.46058627 1289.4304564 1072 1293 C1072.66 1293 1073.32 1293 1074 1293 C1078.39453125 1303.25390625 1078.39453125 1303.25390625 1079.19775391 1305.1315918 C1079.98397671 1306.96268221 1080.77900939 1308.78998186 1081.57421875 1310.6171875 C1082.82110549 1313.5755544 1083.94165962 1316.53300067 1085 1319.5625 C1086.04400443 1322.48096694 1087.08865895 1325.17362377 1088.5 1327.9375 C1090.46777822 1331.9550472 1091.71332318 1336.12253748 1093.03515625 1340.390625 C1093.83562153 1343.1142799 1093.83562153 1343.1142799 1096 1345 C1096.2475 1346.5159375 1096.2475 1346.5159375 1096.5 1348.0625 C1096.7475 1349.5165625 1096.7475 1349.5165625 1097 1351 C1097.66 1351.33 1098.32 1351.66 1099 1352 C1099.9296875 1354.1875 1099.9296875 1354.1875 1100.875 1357 C1102.07776191 1360.4579405 1103.31630165 1363.81276601 1104.875 1367.125 C1106.86890994 1371.46468633 1108.39117467 1375.92506374 1109.9375 1380.4375 C1112.17234291 1386.92127753 1114.79946403 1392.92930598 1118 1399 C1121.34301409 1405.85857084 1124.0876152 1412.85211165 1126.69238281 1420.01269531 C1128.65421134 1425.30887683 1131.07864476 1430.24945411 1133.69140625 1435.2578125 C1135.27620128 1438.57878596 1136.29119273 1441.8857442 1137.1640625 1445.453125 C1138.14070574 1448.42869226 1139.50724322 1451.06391158 1140.93457031 1453.84570312 C1142.67205987 1457.35890382 1144.10704569 1460.98799957 1145.5625 1464.625 C1147.15563656 1468.59547781 1148.72761232 1472.48004356 1150.71484375 1476.2734375 C1152 1479 1152 1479 1152 1483 C1152.66 1483 1153.32 1483 1154 1483 C1154.98611151 1485.53916175 1155.96400876 1488.0810023 1156.9375 1490.625 C1157.35418945 1491.69427734 1157.35418945 1491.69427734 1157.77929688 1492.78515625 C1159.32728612 1496.85095932 1160.45835952 1500.65316375 1161 1505 C1161.66 1505 1162.32 1505 1163 1505 C1163.1959375 1505.51304688 1163.391875 1506.02609375 1163.59375 1506.5546875 C1165.87209412 1512.38803407 1168.36909005 1518.1029941 1170.9375 1523.8125 C1173.80504481 1530.19576046 1176.45938173 1536.59751808 1178.90234375 1543.15625 C1180.21215171 1546.54963148 1181.71236019 1549.82663898 1183.30078125 1553.09765625 C1184 1555 1184 1555 1184 1559 C1184.66 1559 1185.32 1559 1186 1559 C1186.38671875 1560.0621875 1186.7734375 1561.124375 1187.171875 1562.21875 C1190.69212382 1571.87266234 1190.69212382 1571.87266234 1195.0703125 1581.15625 C1196.99726639 1584.97777199 1198.45219791 1589.01379541 1200 1593 C1204.6795417 1604.93283134 1209.51978602 1616.84819502 1215 1628.4375 C1218.69723136 1636.31684552 1221.84307091 1644.42014152 1225.01660156 1652.52099609 C1225.70795869 1654.26380649 1226.4144246 1656.00066199 1227.13183594 1657.73291016 C1227.49825195 1658.62155762 1227.86466797 1659.51020508 1228.2421875 1660.42578125 C1228.74661377 1661.632948 1228.74661377 1661.632948 1229.26123047 1662.86450195 C1230 1665 1230 1665 1230 1668 C1230.66 1668 1231.32 1668 1232 1668 C1232.98397585 1670.5607445 1233.96229967 1673.12341492 1234.9375 1675.6875 C1235.35418945 1676.7693457 1235.35418945 1676.7693457 1235.77929688 1677.87304688 C1237.17766574 1681.56271893 1238.38936004 1685.08108282 1239 1689 C1239.66 1689 1240.32 1689 1241 1689 C1241.48919922 1690.30324219 1241.48919922 1690.30324219 1241.98828125 1691.6328125 C1242.42527344 1692.78523438 1242.86226562 1693.93765625 1243.3125 1695.125 C1243.74175781 1696.26195313 1244.17101563 1697.39890625 1244.61328125 1698.5703125 C1245.92396731 1701.81195294 1247.42137535 1704.88265974 1249 1708 C1249.66666667 1710 1250.33333333 1712 1251 1714 C1251.94360707 1716.19610794 1252.92972442 1718.37051671 1253.91796875 1720.546875 C1255.44126744 1724.00041859 1256.80479049 1727.51196907 1258.16796875 1731.03125 C1258.83986593 1732.96522095 1258.83986593 1732.96522095 1260 1734 C1260.04063832 1735.66617115 1260.042721 1737.33388095 1260 1739 C1260.66 1739 1261.32 1739 1262 1739 C1262.48919922 1740.42892578 1262.48919922 1740.42892578 1262.98828125 1741.88671875 C1263.42939503 1743.15374769 1263.87081771 1744.42066913 1264.3125 1745.6875 C1264.74175781 1746.92886719 1265.17101563 1748.17023438 1265.61328125 1749.44921875 C1266.83418922 1752.57543098 1268.22618109 1755.16986196 1270 1758 C1270.66666667 1760 1271.33333333 1762 1272 1764 C1272.69414705 1765.36149306 1273.40333452 1766.7153911 1274.125 1768.0625 C1275.74338653 1771.1853866 1276.44752547 1773.41979628 1276 1777 C1276.66 1777 1277.32 1777 1278 1777 C1278.65134925 1778.56020867 1279.29582964 1780.12328579 1279.9375 1781.6875 C1280.29714844 1782.55761719 1280.65679688 1783.42773438 1281.02734375 1784.32421875 C1281.9570312 1786.88179265 1282.54162625 1789.3221323 1283 1792 C1279.97817162 1792.87660453 1277.29136426 1793.12477733 1274.14943814 1793.1241985 C1273.16715869 1793.12644579 1272.18487924 1793.12869308 1271.17283374 1793.13100848 C1270.09399124 1793.12838146 1269.01514874 1793.12575445 1267.90361404 1793.12304783 C1266.17708238 1793.1247786 1266.17708238 1793.1247786 1264.41567129 1793.12654433 C1261.20617141 1793.12874288 1257.99671038 1793.12643262 1254.78721358 1793.12226619 C1251.30112188 1793.11883808 1247.81503344 1793.12120163 1244.32894111 1793.12284368 C1238.21438158 1793.12491998 1232.09983176 1793.12326929 1225.98527336 1793.11920547 C1216.89309705 1793.11317944 1207.80092689 1793.11286883 1198.70874895 1793.11374746 C1183.41551349 1793.11506256 1168.12228235 1793.11171544 1152.82904816 1793.10573006 C1137.68233468 1793.09981719 1122.53562301 1793.09596495 1107.38890839 1793.09487724 C1105.97732663 1793.09477413 1105.97732663 1793.09477413 1104.53722807 1793.09466894 C1099.75827341 1793.09433062 1094.97931875 1793.09402923 1090.20036408 1793.09374207 C1056.33295634 1793.09164051 1022.46555095 1793.08489995 988.59814453 1793.07543945 C955.69222018 1793.06625813 922.78629647 1793.05917299 889.88037109 1793.05493164 C888.3594643 1793.05473435 888.3594643 1793.05473435 886.80783213 1793.05453308 C876.62564206 1793.05321458 866.44345199 1793.05193876 856.26126192 1793.05069422 C835.51814837 1793.04815786 814.77503487 1793.04533661 794.03192139 1793.04234314 C792.60125466 1793.0421372 792.60125466 1793.0421372 791.14168557 1793.04192711 C727.4277894 1793.03272326 663.71389454 1793.01687768 600 1793 C599.04471774 1790.6153484 598.08976973 1788.23056384 597.13500977 1785.84570312 C596.86693764 1785.17661926 596.59886551 1784.5075354 596.32266998 1783.81817627 C594.15194595 1778.39483711 592.02002734 1772.95788077 589.9375 1767.5 C589.60024902 1766.61924805 589.26299805 1765.73849609 588.91552734 1764.83105469 C586.38634883 1758.16640925 584.11532792 1751.44952096 582.0078125 1744.640625 C581.28845036 1741.86248671 581.28845036 1741.86248671 579 1741 C578.20399475 1739.36270142 578.20399475 1739.36270142 577.42211914 1737.19775391 C577.12253799 1736.37959198 576.82295685 1735.56143005 576.51429749 1734.71847534 C576.19118088 1733.8136441 575.86806427 1732.90881287 575.53515625 1731.9765625 C575.18968246 1731.02782257 574.84420868 1730.07908264 574.48826599 1729.10159302 C573.7356513 1727.03252031 572.98629026 1724.96226196 572.23974609 1722.89099121 C570.65075004 1718.48269699 569.04644467 1714.08003205 567.44259644 1709.67712402 C566.60015057 1707.36432768 565.75847001 1705.05125243 564.91751099 1702.73791504 C560.18019487 1689.71642199 555.34360343 1676.73224847 550.5 1663.75 C549.67320585 1661.53078132 548.84646303 1659.31154352 548.01977539 1657.09228516 C547.25288398 1655.03543812 546.48588138 1652.97863254 545.71875 1650.921875 C545.37057724 1649.98755646 545.02240448 1649.05323792 544.66368103 1648.09060669 C543.40455598 1644.71933438 542.14399533 1641.35567603 540.79345703 1638.01977539 C539.50556557 1634.74139814 539.3550606 1631.49142919 539 1628 C538.34 1628 537.68 1628 537 1628 C536.34 1624.37 535.68 1620.74 535 1617 C534.34 1617 533.68 1617 533 1617 C532.81002441 1616.48161057 532.62004883 1615.96322113 532.42431641 1615.42912292 C523.46895935 1590.9953812 514.49366442 1566.5695873 505.40112305 1542.18652344 C501.36862763 1531.37146571 497.3499715 1520.55137627 493.34375 1509.7265625 C478.22531752 1468.88079054 462.73383493 1428.21428885 446.80143738 1387.67831421 C442.92841504 1377.82258075 439.06983418 1367.96123435 435.21426392 1358.09866333 C428.20222032 1340.16297442 421.16872128 1322.23577049 414.125 1304.3125 C406.99467618 1286.16875221 399.86716652 1268.02391369 392.75 1249.875 C392.33733887 1248.82272217 391.92467773 1247.77044434 391.49951172 1246.6862793 C385.33443311 1230.96424132 379.17991367 1215.23808938 373.0291748 1199.51043701 C366.70230126 1183.33392322 360.35397096 1167.16588716 354 1151 C346.54677701 1132.03737606 339.10805865 1113.06917854 331.6875 1094.09375 C326.13364471 1079.8924378 320.56878167 1065.69546524 315 1051.5 C308.65921229 1035.33624362 302.32490004 1019.16997988 296 1003 C287.19097405 980.47986536 278.3629281 957.96720884 269.53222656 935.45556641 C265.76945644 925.86316519 262.00780175 916.27032656 258.24606323 906.67752075 C257.00271322 903.50691883 255.75930114 900.33634125 254.51586914 897.16577148 C250.26106927 886.31656175 246.00695791 875.46708268 241.75390625 864.6171875 C230.70385493 836.42793771 230.70385493 836.42793771 219.625 808.25 C219.37332062 807.61052429 219.12164124 806.97104858 218.86233521 806.31219482 C218.15087679 804.50482145 217.43872947 802.6977193 216.7265625 800.890625 C216.30544693 799.81595474 215.88433136 798.74128448 215.45045471 797.63404846 C214.53731642 795.34622191 213.60037925 793.0676124 212.62997437 790.80348206 C208.04961532 779.94866191 205.03483593 768.83309235 202.0625 757.44921875 C201.50464889 755.34172308 200.94592045 753.23445948 200.38638306 751.12741089 C199.19875016 746.64828502 198.0168584 742.16770115 196.83966064 737.68582153 C194.97596855 730.59068836 193.09925111 723.49904171 191.22021484 716.40795898 C189.30603903 709.18213537 187.39252142 701.95614283 185.48348999 694.72895813 C180.1359464 674.48525161 174.72767002 654.25828696 169.29060364 634.03846741 C168.17297772 629.88103018 167.05672039 625.72322559 165.94042969 621.56542969 C164.39192392 615.79806297 162.8431706 610.03076292 161.29392242 604.26359558 C156.8358599 587.66816598 152.38323937 571.07127631 147.93061066 554.47438812 C147.25005135 551.93769141 146.56945871 549.40100364 145.88885498 546.86431885 C135.57825858 508.43546415 125.27764465 470.00393437 114.9776001 431.57225037 C109.79554874 412.23691122 104.61294192 392.90172098 99.43023014 373.56655884 C97.53928909 366.51199765 95.64841536 359.45741843 93.75756836 352.40283203 C88.57942856 333.08374045 83.40085141 313.76476635 78.22109604 294.44610786 C75.75140765 285.23494717 73.28190664 276.02373623 70.8125 266.8125 C70.54239609 265.80498058 70.27229218 264.79746117 69.9940033 263.75941086 C61.59506804 232.42988922 53.2089954 201.09694743 44.83297729 169.7612915 C38.40477704 145.71300712 31.96198696 121.66868362 25.50680733 97.62762737 C11.75484497 46.41028777 11.75484497 46.41028777 5.97344971 24.68667603 C5.41466953 22.58796425 4.85507907 20.48946801 4.2946167 18.39120483 C3.55073841 15.60519603 2.80999062 12.81837637 2.0703125 10.03125 C1.85590515 9.23048538 1.6414978 8.42972076 1.42059326 7.60469055 C0 2.22932542 0 2.22932542 0 0 Z " fill="#BC9968" transform="translate(2629,1633)"/>
<path d="M0 0 C229.35 0 458.7 0 695 0 C699.95 11.88 704.9 23.76 710 36 C713.11818992 43.41964321 716.23967061 50.83762634 719.375 58.25 C720.17556891 60.14459919 720.97610508 62.03921222 721.77661133 63.93383789 C727.41419503 77.2719876 733.07622052 90.59968985 738.74560547 103.92434692 C744.47680511 117.39555024 750.17148891 130.88178692 755.84716797 144.37646484 C756.51398931 145.96191746 757.1808188 147.54736666 757.84765625 149.1328125 C758.18186584 149.92742889 758.51607544 150.72204529 758.8604126 151.54074097 C763.00193573 161.38519782 767.15727115 171.22382228 771.3125 181.0625 C771.70585541 181.99393829 772.09921082 182.92537659 772.50448608 183.88504028 C774.51230525 188.6393963 776.52026051 193.39369483 778.52832031 198.14794922 C782.33991685 207.1722917 786.15082678 216.19692409 789.96151733 225.22164917 C791.51739095 228.90624202 793.07345348 232.59075507 794.62962341 236.27522278 C795.35678856 237.99767034 796.08349215 239.72031284 796.80970764 241.44316101 C798.60476844 245.70125341 800.40653156 249.95627376 802.22119141 254.20605469 C802.58118729 255.05247528 802.94118317 255.89889587 803.31208801 256.77096558 C803.98545708 258.35397081 804.66139895 259.93588561 805.34062195 261.51638794 C811 274.85085636 811 274.85085636 811 280 C811.66 280 812.32 280 813 280 C813.50559908 281.43554025 814.0042749 282.8735202 814.5 284.3125 C814.7784375 285.11300781 815.056875 285.91351562 815.34375 286.73828125 C816 289 816 289 816 292 C816.66 292 817.32 292 818 292 C818.31453125 293.00160156 818.6290625 294.00320313 818.953125 295.03515625 C821.11706411 301.79884657 823.25496044 307.93045313 827 314 C827.6703899 315.99875507 828.33602572 317.99910455 829 320 C830.39244999 323.58095474 831.85187568 327.13389329 833.3125 330.6875 C833.71694336 331.67484131 834.12138672 332.66218262 834.53808594 333.67944336 C836.86967871 339.34315375 839.2910146 344.94398137 841.88671875 350.4921875 C843.22950621 353.51699294 844.39512004 356.59094529 845.5625 359.6875 C847.17558539 363.96217627 848.93095 368.014924 851.0390625 372.0625 C853.50603531 377.03655899 855.35650902 382.30799725 857.328125 387.4921875 C858.00101563 389.25949219 858.00101563 389.25949219 858.6875 391.0625 C859.31205078 392.71958984 859.31205078 392.71958984 859.94921875 394.41015625 C860.75923431 396.88902833 860.75923431 396.88902833 862 398 C862.04063832 399.66617115 862.042721 401.33388095 862 403 C719.92857602 404.10334387 719.92857602 404.10334387 676.82805634 404.12338257 C674.56946882 404.12499502 672.31089152 404.12853782 670.05230713 404.13256836 C665.99448572 404.139314 661.93673117 404.13710312 657.87890625 404.1328125 C656.74718491 404.13479645 655.61546356 404.1367804 654.44944763 404.13882446 C649.19081708 404.12290631 644.18043407 403.92371795 639 403 C639 403.33 639 403.66 639 404 C610.27702481 404.02280392 581.55405069 404.0405052 552.83106823 404.05106533 C549.44141527 404.05231606 546.05176232 404.05361038 542.66210938 404.05493164 C541.64986483 404.05532511 541.64986483 404.05532511 540.6171709 404.05572652 C529.68497414 404.06007992 518.75278262 404.06796566 507.82058898 404.0771528 C496.60632709 404.0864985 485.39206782 404.09198269 474.17780185 404.09408849 C467.87759559 404.09539443 461.57740124 404.09847292 455.27719879 404.10573006 C449.35118039 404.11250108 443.42517885 404.11461473 437.49915695 404.11310768 C435.32065871 404.11338352 433.14215992 404.11538223 430.96366501 404.11920547 C427.99603976 404.12415957 425.02847869 404.12299187 422.06085205 404.12025452 C421.1931491 404.12316736 420.32544615 404.1260802 419.43144917 404.12908131 C418.63623758 404.12709026 417.84102599 404.12509921 417.02171707 404.12304783 C416.3367016 404.12342755 415.65168612 404.12380727 414.9459126 404.1241985 C413 404 413 404 410.90026069 403.46547121 C408.36823283 402.84524785 406.52952243 403.43929672 404 404 C402.27307266 404.08734928 400.54334331 404.12783628 398.81420898 404.12939453 C397.80643906 404.13254669 396.79866913 404.13569885 395.76036072 404.13894653 C394.68315262 404.1369223 393.60594452 404.13489807 392.49609375 404.1328125 C391.38065689 404.13376923 390.26522003 404.13472595 389.11598206 404.13571167 C386.76164697 404.13639123 384.40730999 404.13455257 382.05297852 404.13037109 C378.44738568 404.12501469 374.84191712 404.1303263 371.23632812 404.13671875 C368.94791639 404.13605803 366.65950474 404.13477699 364.37109375 404.1328125 C363.29186142 404.13483673 362.21262909 404.13686096 361.10069275 404.13894653 C360.09607498 404.13579437 359.09145721 404.13264221 358.05639648 404.12939453 C357.17435043 404.12859894 356.29230438 404.12780334 355.38352966 404.12698364 C353 404 353 404 351.12147522 403.42941284 C348.8332428 402.84169452 348.8332428 402.84169452 345.82798004 403.46480465 C342.03695552 403.9948332 338.45639527 404.12863077 334.63084412 404.13371277 C333.92264198 404.13597833 333.21443984 404.13824388 332.48477703 404.14057809 C330.12972699 404.14686986 327.77473521 404.14609187 325.41967773 404.14526367 C323.72396776 404.14825807 322.02825846 404.15166124 320.33255005 404.15544128 C315.73972931 404.16425426 311.14692722 404.16661818 306.55409884 404.16725707 C303.68339835 404.1679688 300.81270257 404.17010539 297.94200325 404.17275429 C287.92397893 404.18199685 277.9059679 404.1860903 267.88793945 404.18530273 C258.55333285 404.18470136 249.21878393 404.19526768 239.88419193 404.2110464 C231.86363848 404.22412035 223.84310389 404.22948673 215.82253987 404.22884732 C211.03477864 404.22859241 206.24706876 404.23144034 201.45931816 404.24202538 C196.9588605 404.25170456 192.45850334 404.25178677 187.95804214 404.24450874 C186.30768372 404.24346287 184.65731905 404.24582596 183.00697136 404.2518692 C180.75192021 404.25959139 178.49721597 404.25494307 176.24217224 404.24723816 C174.35046374 404.24805531 174.35046374 404.24805531 172.4205389 404.24888897 C168.93974366 403.99561556 166.21912484 403.32768629 163 402 C161.72970581 400.41880798 161.72970581 400.41880798 160.98388672 398.51147461 C160.53961334 397.42456833 160.53961334 397.42456833 160.08636475 396.31570435 C159.63755951 395.12109085 159.63755951 395.12109085 159.1796875 393.90234375 C158.84342346 393.06275116 158.50715942 392.22315857 158.16070557 391.35812378 C157.04482928 388.55895222 155.9605137 385.74857003 154.875 382.9375 C154.08814925 380.94982335 153.29887605 378.96310415 152.50732422 376.97729492 C150.83868286 372.78567032 149.18060234 368.59008432 147.52929688 364.39160156 C143.89521945 355.17694443 140.12953555 346.01634954 136.3706665 336.8520813 C134.26438656 331.71249611 132.16782877 326.56894766 130.0703125 321.42578125 C129.2243283 319.35235817 128.37829967 317.27895321 127.53222656 315.20556641 C127.11380493 314.18013733 126.6953833 313.15470825 126.26428223 312.09820557 C122.92608145 303.91772812 119.58695777 295.73762731 116.24798584 287.5574646 C114.16527684 282.45499561 112.0826422 277.35249626 110 272.25 C109.16666702 270.20833319 108.33333369 268.16666652 107.5 266.125 C92.5 229.375 77.5 192.625 62.5 155.875 C62.08753021 154.86445053 61.67506042 153.85390106 61.25009155 152.81272888 C60.41644877 150.77030102 59.58281027 148.72787141 58.74917603 146.68544006 C56.67061219 141.59290542 54.59197501 136.50040074 52.51318359 131.40795898 C48.70622034 122.08178141 44.89988176 112.75535077 41.09614563 103.42785645 C29.73437588 75.55984123 29.73437588 75.55984123 18.30151367 47.72094727 C17.45509214 45.66767547 16.60927548 43.61415564 15.76367188 41.56054688 C15.223969 40.24999561 14.68425563 38.93944866 14.14453125 37.62890625 C13.88423126 36.99683258 13.62393127 36.36475891 13.35574341 35.71353149 C12.02178513 32.47562685 10.68538306 29.23875766 9.34521484 26.00341797 C8.26912576 23.40559094 7.19561689 20.80673052 6.12524414 18.20654297 C5.15332316 15.84577933 4.17749422 13.48661929 3.19702148 11.12939453 C2.56195679 9.58227783 2.56195679 9.58227783 1.9140625 8.00390625 C1.5423291 7.10486572 1.1705957 6.2058252 0.78759766 5.27954102 C0 3 0 3 0 0 Z " fill="#BE9B6A" transform="translate(3295,3604)"/>
<path d="M0 0 C0.66 0.99 1.32 1.98 2 3 C1.34 4.32 0.68 5.64 0 7 C0.56485611 6.98525131 1.12971222 6.97050262 1.71168518 6.95530701 C7.83236047 6.79752552 13.95327542 6.65424781 20.07446289 6.51782227 C22.33007752 6.46588014 24.58562214 6.41075818 26.84106445 6.35180664 C40.49450063 5.99761193 54.08143686 5.9950775 67.73031366 6.41080022 C86.81022003 6.98270854 105.87486953 7.1503583 124.96214843 7.1343255 C128.2723708 7.13223285 131.58258904 7.13353491 134.8928116 7.13475883 C142.77986406 7.13767368 150.6669042 7.13578911 158.55395508 7.13037109 C165.57674866 7.12559946 172.59952094 7.12549511 179.62231445 7.13037109 C210.92217617 7.15168225 242.22068786 7.17275329 273.51806641 6.73339844 C274.39300629 6.72120797 275.26794617 6.7090175 276.16939938 6.69645762 C284.56491282 6.57847704 292.96020957 6.45232252 301.35522032 6.30257893 C304.39932438 6.24916592 307.4434944 6.20046218 310.48768783 6.15244532 C312.52539626 6.11838452 314.56298465 6.07735414 316.60055733 6.03596115 C322.90158173 5.93719784 329.10894505 6.03597551 335.39529419 6.48561096 C348.77954249 7.4042145 362.22418826 7.13378223 375.63318908 7.11606562 C379.7808499 7.11170448 383.9285094 7.11321152 388.07617188 7.1139679 C395.24372802 7.11448957 402.41127498 7.11138018 409.57882881 7.10573006 C419.94161883 7.09756651 430.30440446 7.09499488 440.66719734 7.09374207 C457.4844329 7.09155914 474.30166357 7.08491972 491.11889648 7.07543945 C507.44506811 7.06624564 523.77123841 7.05917446 540.09741211 7.05493164 C541.60959991 7.05453756 541.60959991 7.05453756 543.15233696 7.05413551 C548.21033632 7.05283037 553.2683357 7.05156669 558.32633507 7.05032361 C600.21756011 7.03997466 642.10877977 7.0223771 684 7 C684 7.66 684 8.32 684 9 C457.29 9 230.58 9 -3 9 C-2.24872886 5.24364431 -1.75994274 3.16789693 0 0 Z " fill="#D5C196" transform="translate(1526,4000)"/>
<path d="M0 0 C2 3 2 3 3 7 C-228.33 7 -459.66 7 -698 7 C-698 6.01 -698 5.02 -698 4 C-697.32147319 4.16238096 -696.64294638 4.32476192 -695.94385815 4.49206352 C-692.54437603 5.07861385 -689.34927637 5.1259495 -685.89826965 5.12698364 C-684.84276312 5.12932363 -684.84276312 5.12932363 -683.76593322 5.13171089 C-681.41400237 5.13569133 -679.06213637 5.13254263 -676.71020508 5.12939453 C-675.02128054 5.13074994 -673.3323563 5.13253067 -671.64343262 5.13470459 C-667.05848537 5.139264 -662.47356063 5.13749501 -657.88861299 5.1343255 C-653.08465149 5.13179215 -648.28069192 5.13414236 -643.47673035 5.13571167 C-635.40399836 5.13753138 -627.33127552 5.13513315 -619.25854492 5.13037109 C-609.94111737 5.12493807 -600.62371174 5.12668494 -591.30628473 5.1321975 C-583.29759942 5.13674527 -575.28892069 5.13737076 -567.28023452 5.13475883 C-562.50127567 5.13320402 -557.72232709 5.13298024 -552.94336891 5.13629532 C-548.44458881 5.13919788 -543.94583673 5.1371547 -539.44705963 5.13140106 C-537.80161015 5.13008582 -536.15615828 5.13044643 -534.51070976 5.13266373 C-523.12286937 5.14869951 -523.12286937 5.14869951 -511.78737926 4.11654472 C-510 4 -510 4 -508 5 C-506.28997123 5.09564328 -504.57622617 5.12795385 -502.86352539 5.12939453 C-501.25659569 5.13412277 -501.25659569 5.13412277 -499.61720276 5.13894653 C-497.87502724 5.13591019 -497.87502724 5.13591019 -496.09765625 5.1328125 C-494.90901474 5.13376923 -493.72037323 5.13472595 -492.49571228 5.13571167 C-489.97801663 5.1363932 -487.46031924 5.13454079 -484.94262695 5.13037109 C-481.08215392 5.12502721 -477.22179749 5.1303146 -473.36132812 5.13671875 C-470.91927058 5.13605787 -468.4772131 5.13477651 -466.03515625 5.1328125 C-464.87573013 5.13483673 -463.71630402 5.13686096 -462.52174377 5.13894653 C-460.91008583 5.13421829 -460.91008583 5.13421829 -459.26586914 5.12939453 C-458.31925919 5.12859894 -457.37264923 5.12780334 -456.39735413 5.12698364 C-453.85327786 5.09865114 -453.85327786 5.09865114 -451 4 C-448.66508624 4.32207655 -446.33202923 4.65766214 -444 5 C-440.94188795 5.14468575 -437.88745971 5.13517546 -434.82635498 5.12698364 C-433.92410918 5.12854363 -433.02186339 5.13010362 -432.09227681 5.13171089 C-429.0807068 5.13568726 -426.06918754 5.13254433 -423.05761719 5.12939453 C-420.89399181 5.13075002 -418.73036666 5.13253079 -416.56674194 5.13470459 C-410.6993678 5.1392602 -404.83201125 5.13749733 -398.9646368 5.1343255 C-392.8267862 5.13179355 -386.68893709 5.13414166 -380.55108643 5.13571167 C-370.24824757 5.13753037 -359.94541589 5.13513432 -349.64257812 5.13037109 C-337.72108854 5.12492328 -325.79961604 5.12669611 -313.87812686 5.1321975 C-303.64702417 5.13673027 -293.41592664 5.13737855 -283.18482327 5.13475883 C-277.07199145 5.13319771 -270.95916767 5.13299793 -264.84633636 5.13629532 C-259.10407838 5.13917659 -253.36184253 5.1371936 -247.61958694 5.13140106 C-245.50839144 5.13007509 -243.39719408 5.13046483 -241.2859993 5.13266373 C-238.41254425 5.13538144 -235.53916088 5.13198646 -232.66571045 5.12698364 C-231.82321519 5.12921436 -230.98071992 5.13144509 -230.1126945 5.13374341 C-226.81757139 5.12255485 -224.14841859 5.04947286 -221 4 C-220.29465528 4.14189475 -219.58931055 4.2837895 -218.86259174 4.42998409 C-214.97545603 5.20401315 -211.14449298 5.13417173 -207.1985321 5.12025452 C-206.31221267 5.12110894 -205.42589324 5.12196337 -204.51271564 5.12284368 C-201.54320587 5.12449063 -198.57375261 5.11898993 -195.60424805 5.11352539 C-193.47545879 5.11324332 -191.34666944 5.11340163 -189.21788025 5.1139679 C-183.43736044 5.11425511 -177.65686134 5.10837062 -171.87634635 5.10139394 C-165.83584431 5.09514779 -159.79534181 5.0945556 -153.75483704 5.09336853 C-142.31564153 5.09025895 -130.87645557 5.08205056 -119.43726426 5.07201904 C-106.41442275 5.06084636 -93.39158078 5.05534454 -80.36873567 5.05032361 C-53.57915182 5.03986765 -26.78957644 5.0222754 0 5 C0 3.35 0 1.7 0 0 Z " fill="#4F2A12" transform="translate(4157,4002)"/>
<path d="M0 0 C173.91 0 347.82 0 527 0 C527 0.99 527 1.98 527 3 C267.125 2.505 267.125 2.505 2 2 C1.67 2.66 1.34 3.32 1 4 C0.67 2.68 0.34 1.36 0 0 Z " fill="#BBAA84" transform="translate(2629,1633)"/>
<path d="M0 0 C0.99 0.495 0.99 0.495 2 1 C2 1.99 2 2.98 2 4 C2.8216645 3.99788403 3.643329 3.99576806 4.48989242 3.99358797 C63.12014411 3.84269968 121.75040789 3.69702006 180.3806814 3.55486792 C192.87941514 3.52454916 205.3781484 3.49404835 217.87688065 3.46311569 C252.60541318 3.37718474 287.3339498 3.29335265 322.0625 3.21484375 C323.28885118 3.21207085 324.51520236 3.20929794 325.7787157 3.20644102 C389.45398371 3.06286295 453.12886463 2.95982886 516.80429921 3.00239831 C519.87425977 3.0043931 522.94422044 3.00615851 526.01418114 3.00791351 C552.66976563 3.02317512 579.32532132 3.04447874 605.98085368 3.10206181 C615.57235949 3.12254586 625.16386106 3.13703848 634.75538385 3.14670414 C641.13749554 3.15363149 647.51950108 3.16906685 653.90157455 3.1919657 C657.66379062 3.2035107 661.42597929 3.20699147 665.18821156 3.20795345 C666.90081038 3.21008094 668.6134089 3.21566165 670.32598388 3.22494411 C672.62415529 3.23699965 674.92200678 3.23701176 677.22019958 3.23377991 C678.49217917 3.23692231 679.76415876 3.24006472 681.07468319 3.24330235 C684.12384023 3.30686983 684.12384023 3.30686983 686 1 C686.33 2.32 686.66 3.64 687 5 C460.62 5 234.24 5 1 5 C0.67 3.35 0.34 1.7 0 0 Z " fill="#5D371B" transform="translate(3227,3422)"/>
<path d="M0 0 C1.01779022 0.24357144 1.01779022 0.24357144 2.05614185 0.49206352 C5.45562397 1.07861385 8.65072363 1.1259495 12.10173035 1.12698364 C13.15723688 1.12932363 13.15723688 1.12932363 14.23406678 1.13171089 C16.58599763 1.13569133 18.93786363 1.13254263 21.28979492 1.12939453 C22.97871946 1.13074994 24.6676437 1.13253067 26.35656738 1.13470459 C30.94151463 1.139264 35.52643937 1.13749501 40.11138701 1.1343255 C44.91534851 1.13179215 49.71930808 1.13414236 54.52326965 1.13571167 C62.59600164 1.13753138 70.66872448 1.13513315 78.74145508 1.13037109 C88.05888263 1.12493807 97.37628826 1.12668494 106.69371527 1.1321975 C114.70240058 1.13674527 122.71107931 1.13737076 130.71976548 1.13475883 C135.49872433 1.13320402 140.27767291 1.13298024 145.05663109 1.13629532 C149.55541119 1.13919788 154.05416327 1.1371547 158.55294037 1.13140106 C160.19838985 1.13008582 161.84384172 1.13044643 163.48929024 1.13266373 C174.87713063 1.14869951 174.87713063 1.14869951 186.21262074 0.11654472 C188 0 188 0 190 1 C191.71002877 1.09564328 193.42377383 1.12795385 195.13647461 1.12939453 C196.74340431 1.13412277 196.74340431 1.13412277 198.38279724 1.13894653 C200.12497276 1.13591019 200.12497276 1.13591019 201.90234375 1.1328125 C203.09098526 1.13376923 204.27962677 1.13472595 205.50428772 1.13571167 C208.02198337 1.1363932 210.53968076 1.13454079 213.05737305 1.13037109 C216.91784608 1.12502721 220.77820251 1.1303146 224.63867188 1.13671875 C227.08072942 1.13605787 229.5227869 1.13477651 231.96484375 1.1328125 C233.12426987 1.13483673 234.28369598 1.13686096 235.47825623 1.13894653 C237.08991417 1.13421829 237.08991417 1.13421829 238.73413086 1.12939453 C239.68074081 1.12859894 240.62735077 1.12780334 241.60264587 1.12698364 C244.14672214 1.09865114 244.14672214 1.09865114 247 0 C249.33549536 0.31783169 251.66858033 0.65353516 254 1 C256.52048402 1.04196435 259.04200602 1.04136195 261.5625 1 C266.19604509 0.92411799 270.44881718 1.10238613 275 2 C275 2.33 275 2.66 275 3 C184.25 3 93.5 3 0 3 C0 2.01 0 1.02 0 0 Z " fill="#62452C" transform="translate(3459,4006)"/>
<path d="M0 0 C1.14146484 0.16298584 2.28292969 0.32597168 3.45898438 0.49389648 C7.87573075 1.04380736 12.21043475 1.12840829 16.65625 1.09765625 C17.83785706 1.09553383 17.83785706 1.09553383 19.04333496 1.09336853 C21.52893064 1.08782612 24.01443211 1.07528485 26.5 1.0625 C28.19791535 1.05747754 29.89583214 1.05291595 31.59375 1.04882812 C35.72920229 1.03787564 39.86458524 1.02065166 44 1 C44 1.33 44 1.66 44 2 C37.63491502 2.80851012 31.44608861 3.14137589 25.03416443 3.12025452 C23.58930281 3.12153615 23.58930281 3.12153615 22.11525208 3.12284368 C18.9094163 3.12448193 15.70363364 3.11900437 12.49780273 3.11352539 C10.19108583 3.11324314 7.88436883 3.113402 5.57765198 3.1139679 C-0.66955762 3.11425437 -6.91674794 3.10838178 -13.16395307 3.10139394 C-19.69824453 3.09513553 -26.23253645 3.09455463 -32.76683044 3.09336853 C-43.72940402 3.09078181 -54.69197087 3.08437238 -65.65454102 3.07543945 C-76.9426266 3.06625089 -88.23071026 3.05917712 -99.51879883 3.05493164 C-100.56368751 3.05453756 -100.56368751 3.05453756 -101.62968505 3.05413551 C-105.124522 3.05283041 -108.61935897 3.05156671 -112.11419594 3.05032361 C-141.07613529 3.03996837 -170.03806748 3.02229057 -199 3 C-199 2.67 -199 2.34 -199 2 C-186.76541101 1.19931061 -174.60021584 0.85871128 -162.34130859 0.88647461 C-160.55542502 0.88675762 -158.76954134 0.88659654 -156.98365784 0.8860321 C-152.1976758 0.88574856 -147.41171951 0.89157285 -142.62574339 0.89860606 C-137.60097101 0.90491412 -132.57619785 0.90544924 -127.55142212 0.90663147 C-118.06407832 0.90972302 -108.57674623 0.91790669 -99.08940756 0.92798096 C-88.27662189 0.93921016 -77.46383562 0.9446696 -66.65104556 0.94967639 C-44.43402387 0.96009144 -22.21701268 0.97764817 0 1 C0 0.67 0 0.34 0 0 Z " fill="#56361E" transform="translate(3933,4006)"/>
<path d="M0 0 C0.66 0.99 1.32 1.98 2 3 C1.34 4.32 0.68 5.64 0 7 C0.56485611 6.98525131 1.12971222 6.97050262 1.71168518 6.95530701 C29.34709553 6.24290913 56.87055131 5.89253675 84.50061035 6.81625366 C95.99651218 7.18210831 107.50004452 7.09351897 119 7 C119 7.66 119 8.32 119 9 C78.74 9 38.48 9 -3 9 C-2.24872886 5.24364431 -1.75994274 3.16789693 0 0 Z " fill="#D2C19B" transform="translate(1526,4000)"/>
<path d="M0 0 C33.99 0 67.98 0 103 0 C103 0.66 103 1.32 103 2 C101.11198921 2.01213028 101.11198921 2.01213028 99.18583679 2.02450562 C87.3401829 2.10189637 75.49464486 2.18961767 63.64914227 2.28752708 C57.55884275 2.33753264 51.46856094 2.38386231 45.37817383 2.421875 C39.50369681 2.45867395 33.62936644 2.50501921 27.75501442 2.55806351 C25.51069517 2.57663615 23.26634445 2.59173342 21.02197838 2.60334396 C17.88518541 2.62015727 14.74873042 2.6491805 11.61206055 2.68115234 C10.67842178 2.68331253 9.74478302 2.68547272 8.78285217 2.68769836 C7.50192184 2.70444359 7.50192184 2.70444359 6.19511414 2.7215271 C5.45307078 2.72705786 4.71102743 2.73258862 3.94649792 2.73828697 C1.67679353 2.89850273 1.67679353 2.89850273 -1 5 C-0.67 3.35 -0.34 1.7 0 0 Z " fill="#43240E" transform="translate(2526,1633)"/>
<path d="M0 0 C0.63910812 0.16265854 1.27821625 0.32531708 1.93669128 0.49290466 C5.98404623 1.16289747 9.91771168 1.13100565 14.01293945 1.11352539 C14.91099808 1.11367142 15.8090567 1.11381744 16.73432922 1.1139679 C19.69400472 1.11327287 22.65361679 1.10549965 25.61328125 1.09765625 C27.66879746 1.09579061 29.72431412 1.0943674 31.77983093 1.09336853 C37.18357577 1.08955482 42.58729363 1.0797343 47.99102783 1.06866455 C53.50768672 1.0584258 59.02434997 1.05386563 64.54101562 1.04882812 C75.36068892 1.03811102 86.18034221 1.02104834 97 1 C97 1.33 97 1.66 97 2 C77.57940452 3.22049512 58.17083497 3.11984145 38.722229 3.06866455 C34.34347017 3.05827152 29.96470522 3.05383337 25.5859375 3.04882812 C17.05727533 3.03823477 8.52864224 3.02126158 0 3 C0 2.01 0 1.02 0 0 Z " fill="#725134" transform="translate(3459,4006)"/>
<path d="M0 0 C0.66 0.99 1.32 1.98 2 3 C1.34 4.32 0.68 5.64 0 7 C0.88725517 6.97787697 0.88725517 6.97787697 1.79243469 6.95530701 C57.2890898 5.58616193 57.2890898 5.58616193 79 7 C79 7.33 79 7.66 79 8 C52.27 8 25.54 8 -2 8 C-1 1 -1 1 0 0 Z " fill="#F5DDA5" transform="translate(1526,4000)"/>
<path d="M0 0 C1.33218694 3.99656082 -0.12404747 6.13678781 -1.8125 9.75 C-3.45183442 13.34796914 -4.93192245 16.76002006 -6.01171875 20.56640625 C-7.01222547 24.04247504 -8.34015842 26.97985615 -10 30.1875 C-10.7734375 31.69376953 -10.7734375 31.69376953 -11.5625 33.23046875 C-12.036875 34.14441406 -12.51125 35.05835937 -13 36 C-13.66930736 37.33200971 -14.33716015 38.66476011 -15 40 C-16.37344308 35.87967076 -15.10493772 34.32582498 -13.359375 30.390625 C-13.07652649 29.74559021 -12.79367798 29.10055542 -12.5022583 28.43597412 C-11.59385 26.36986759 -10.67222445 24.30997135 -9.75 22.25 C-9.1436387 20.87799829 -8.5381598 19.50560623 -7.93359375 18.1328125 C-6.81114182 15.58633264 -5.68264866 13.04288473 -4.54980469 10.50097656 C-3.00521532 7.01178131 -1.49630808 3.51009405 0 0 Z " fill="#5B381E" transform="translate(2283,2208)"/>
<path d="M0 0 C0.33 0 0.66 0 1 0 C1.4298604 4.66705581 -0.00212582 7.60208187 -2.0625 11.75 C-5.24596082 18.26479853 -8.05891184 24.87121164 -10.68969727 31.62792969 C-12.78751029 36.89375515 -12.78751029 36.89375515 -15 38 C-12.75735215 29.44623907 -9.34586045 21.45509324 -5.8125 13.375 C-5.24753604 12.07183593 -4.68307932 10.76845183 -4.11914062 9.46484375 C-2.7519219 6.30734219 -1.37789915 3.15285795 0 0 Z " fill="#6E4E32" transform="translate(2110,2617)"/>
<path d="M0 0 C1.39244174 4.17732523 -0.21209409 6.95968907 -1.75 10.875 C-2.01554687 11.58269531 -2.28109375 12.29039062 -2.5546875 13.01953125 C-4.05806703 16.93853518 -5.76215389 20.43323687 -8 24 C-8.54873291 25.21696765 -9.07393688 26.44515378 -9.5625 27.6875 C-11 31 -11 31 -13 33 C-12.33874059 28.81659203 -10.96005703 25.26581569 -9.27734375 21.38671875 C-9.01240616 20.77230423 -8.74746857 20.15788971 -8.47450256 19.52485657 C-7.63337662 17.57706836 -6.78555741 15.63227882 -5.9375 13.6875 C-5.36348661 12.36152097 -4.7899142 11.03535095 -4.21679688 9.70898438 C-2.81629428 6.47043034 -1.40977678 3.23452947 0 0 Z " fill="#5C3A20" transform="translate(2264,2253)"/>
<path d="M0 0 C1.18648125 3.93478053 0.5909244 5.54699115 -1.25 9.25 C-2.88756558 12.63369904 -4.40073247 15.94567491 -5.625 19.5 C-6.88009188 22.69477934 -7.58125268 23.80842785 -10 26 C-9.385789 22.38549563 -8.39633734 19.27609839 -6.93359375 15.91796875 C-6.53076172 14.98662109 -6.12792969 14.05527344 -5.71289062 13.09570312 C-5.29201172 12.13599609 -4.87113281 11.17628906 -4.4375 10.1875 C-4.01275391 9.20845703 -3.58800781 8.22941406 -3.15039062 7.22070312 C-2.10460494 4.81187093 -1.05435216 2.40509197 0 0 Z " fill="#573319" transform="translate(2346,2059)"/>
<path d="M0 0 C3.33495585 0.09263766 6.66456775 0.05828911 10 0 C7.38184261 2.61815739 5.49531662 2.26112488 1.92773438 2.2734375 C0.75694336 2.26183594 0.75694336 2.26183594 -0.4375 2.25 C-1.60249023 2.26160156 -1.60249023 2.26160156 -2.79101562 2.2734375 C-6.70052168 2.25996806 -8.67947032 2.21368645 -12 0 C-7.57631195 -0.78065083 -4.35156619 -0.91079292 0 0 Z " fill="#6C4729" transform="translate(3649,4007)"/>
<path d="M0 0 C1.21198482 3.98920692 0.53850284 5.6781393 -1.3125 9.4375 C-2.65639373 12.20615213 -3.96325645 14.90187958 -5.04296875 17.78515625 C-6 20 -6 20 -8 21 C-7.32512263 16.18080529 -5.42034091 12.08116134 -3.4375 7.6875 C-2.9434668 6.57665039 -2.9434668 6.57665039 -2.43945312 5.44335938 C-1.63082877 3.62688438 -0.81602884 1.81316069 0 0 Z " fill="#512B12" transform="translate(2524,1638)"/>
<path d="M0 0 C0.66 0 1.32 0 2 0 C1.25 6.75 1.25 6.75 -1 9 C-1.8375807 11.04788482 -2.52034987 13.1236602 -3.21875 15.22265625 C-4 17 -4 17 -6 18 C-5.41347648 13.51006131 -4.2356462 9.77456816 -2.4375 5.625 C-1.98246094 4.56539062 -1.52742188 3.50578125 -1.05859375 2.4140625 C-0.70925781 1.61742188 -0.35992188 0.82078125 0 0 Z " fill="#B9A077" transform="translate(1765,3433)"/>
<path d="M0 0 C2 1 2 1 2.78125 2.8125 C3.26041667 4.27083333 3.73958333 5.72916667 4.21875 7.1875 C4.85329445 9.19512796 4.85329445 9.19512796 7 10 C7.4140625 12.06640625 7.4140625 12.06640625 7.625 14.5625 C7.69976563 15.38878906 7.77453125 16.21507813 7.8515625 17.06640625 C7.90054688 17.70449219 7.94953125 18.34257812 8 19 C5.27227952 16.27227952 4.2539869 13.02994255 2.875 9.5 C2.59785156 8.81035156 2.32070312 8.12070313 2.03515625 7.41015625 C0 2.26712592 0 2.26712592 0 0 Z " fill="#E6D2A5" transform="translate(3325,3678)"/>
<path d="M0 0 C1 2 1 2 0.3125 5.375 C-0.99366787 8.98251125 -2.09973607 10.58311339 -5 13 C-4.39254603 8.14036821 -2.27241033 4.2594482 0 0 Z " fill="#DBC597" transform="translate(1588,3854)"/>
<path d="M0 0 C1.1484375 1.671875 1.1484375 1.671875 2 4 C1.1015625 6.578125 1.1015625 6.578125 -0.375 9.25 C-1.09816406 10.58804688 -1.09816406 10.58804688 -1.8359375 11.953125 C-2.22007813 12.62859375 -2.60421875 13.3040625 -3 14 C-3.66 14 -4.32 14 -5 14 C-3.45730076 9.27934033 -1.92205381 4.58335908 0 0 Z " fill="#836444" transform="translate(1986,2910)"/>
<path d="M0 0 C0.33 0 0.66 0 1 0 C1.28883414 4.06534057 0.57875609 6.33058355 -1.5 9.8125 C-1.9640625 10.60269531 -2.428125 11.39289062 -2.90625 12.20703125 C-3.44765625 13.09455078 -3.44765625 13.09455078 -4 14 C-5.305239 10.08428299 -4.32239848 8.96107003 -2.5625 5.3125 C-2.08941406 4.31863281 -1.61632813 3.32476563 -1.12890625 2.30078125 C-0.75636719 1.54152344 -0.38382813 0.78226563 0 0 Z " fill="#D7C397" transform="translate(1546,3952)"/>
<path d="M0 0 C1 2 1 2 0.29296875 4.56640625 C-0.07183594 5.55511719 -0.43664063 6.54382812 -0.8125 7.5625 C-1.16957031 8.55378906 -1.52664063 9.54507813 -1.89453125 10.56640625 C-3 13 -3 13 -5 14 C-4.46515599 8.65155992 -2.53309233 4.64203897 0 0 Z " fill="#D8C599" transform="translate(1556,3929)"/>
<path d="M0 0 C1.0169313 2.65498232 1.13022151 3.69155375 0.00390625 6.359375 C-0.47175781 7.14828125 -0.94742187 7.9371875 -1.4375 8.75 C-2.14712891 9.94882813 -2.14712891 9.94882813 -2.87109375 11.171875 C-3.24363281 11.77515625 -3.61617187 12.3784375 -4 13 C-5 10 -5 10 -4.00390625 7.51953125 C-3.52824219 6.62621094 -3.05257813 5.73289062 -2.5625 4.8125 C-2.08941406 3.91144531 -1.61632813 3.01039063 -1.12890625 2.08203125 C-0.75636719 1.39496094 -0.38382813 0.70789062 0 0 Z " fill="#D3BD91" transform="translate(1634,3745)"/>
<path d="M0 0 C0.66 0.33 1.32 0.66 2 1 C0.88059018 5.85077588 -0.1334716 8.777893 -4 12 C-3.33501617 7.61110675 -1.81242323 4.0188515 0 0 Z " fill="#755335" transform="translate(2083,2681)"/>
<path d="M0 0 C1.10652097 3.31956291 0.95237748 3.88796417 -0.25 7 C-0.62898438 8.0209375 -0.62898438 8.0209375 -1.015625 9.0625 C-2.07347158 11.14461073 -3.27220115 12.44692239 -5 14 C-4.34580901 8.93001981 -2.1453591 4.58009223 0 0 Z " fill="#613F25" transform="translate(2212,2376)"/>
<path d="M0 0 C1.1197034 3.7829979 0.74786637 5.41687395 -1 9 C-1.97236487 10.6829392 -2.96564444 12.35443434 -4 14 C-4.33 13.34 -4.66 12.68 -5 12 C-4.26821134 9.92803369 -3.44100997 7.8891448 -2.5625 5.875 C-2.08941406 4.77929688 -1.61632813 3.68359375 -1.12890625 2.5546875 C-0.75636719 1.71164063 -0.38382813 0.86859375 0 0 Z " fill="#5E3B21" transform="translate(2250,2286)"/>
<path d="M0 0 C0.33 0 0.66 0 1 0 C1.61528766 5.07612318 -0.38341651 7.82982006 -3 12 C-3.33 12 -3.66 12 -4 12 C-4 10.35 -4 8.7 -4 7 C-3.34 7 -2.68 7 -2 7 C-1.34 4.69 -0.68 2.38 0 0 Z " fill="#482610" transform="translate(2462,1784)"/>
<path d="M0 0 C1.078724 3.236172 1.09020478 3.91108646 0 7 C-0.9601817 8.68991979 -1.95355934 10.36209288 -3 12 C-4.21386936 8.35839192 -3.6674695 7.66834531 -2.0625 4.3125 C-1.49208984 3.10013672 -1.49208984 3.10013672 -0.91015625 1.86328125 C-0.60980469 1.24839844 -0.30945312 0.63351562 0 0 Z " fill="#502B12" transform="translate(2515,1659)"/>
<path d="M0 0 C0.99 0.33 1.98 0.66 3 1 C1.70700306 3.88437779 0.34058637 5.87219421 -2 8 C-1.47731534 5.23723823 -0.89130413 2.6739124 0 0 Z " fill="#CCB487" transform="translate(1697,3594)"/>
<path d="M0 0 C0.66 0.99 1.32 1.98 2 3 C1.125 5.6875 1.125 5.6875 0 8 C-0.66 8 -1.32 8 -2 8 C-1.125 1.125 -1.125 1.125 0 0 Z " fill="#EAD3A1" transform="translate(1526,4000)"/>
</svg>
